# xmcd CD database file
#
# Track frame offsets:
#	150
#	21280
#	40487
#	61865
#
# Disc length: 1077 seconds
#
# Revision: 0
# Processed by: cddbd v1.5PL3 Copyright (c) Steve Scherf et al.
# Submitted via: CDex 1.50Beta7
#
DISCID=2e043304
DTITLE=國府田マリ子 - 雨のちスペシャル
DYEAR=1997
DGENRE=JPop
TTITLE0=雨のちスペシャル
TTITLE1=言いだせなくて
TTITLE2=雨のちスペシャル (karaoke)
TTITLE3=言いだせなくて (karaoke)
EXTD=YEAR: 1997
EXTT0=
EXTT1=
EXTT2=
EXTT3=
PLAYORDER=
